<?xml version="1.0" encoding="utf-8"?>
<!-- Generator: Adobe Illustrator 27.5.0, SVG Export Plug-In . SVG Version: 6.00 Build 0)  -->
<svg version="1.1" id="Layer_1" xmlns="http://www.w3.org/2000/svg" xmlns:xlink="http://www.w3.org/1999/xlink" x="0px" y="0px"
	 viewBox="0 0 441.1 328.3" style="enable-background:new 0 0 441.1 328.3;" xml:space="preserve">
<style type="text/css">
	.st0{fill:url(#SVGID_1_);}
</style>
<linearGradient id="SVGID_1_" gradientUnits="userSpaceOnUse" x1="100.7268" y1="-41.1885" x2="345.6284" y2="382.9936">
	<stop  offset="0" style="stop-color:#19056C"/>
	<stop  offset="0.1367" style="stop-color:#181674"/>
	<stop  offset="0.4093" style="stop-color:#15448A"/>
	<stop  offset="0.7887" style="stop-color:#118DAD"/>
	<stop  offset="1" style="stop-color:#0FB8C2"/>
</linearGradient>
<path class="st0" d="M440,37.4c-0.7-5.1-2.1-9.9-5.2-14.3c-3.3-4.7-7.4-8.4-12.5-10.9c-6.7-3.3-13.8-4.5-21.3-3.1
	c-6,1.1-11.2,3.3-15.9,7.3c-1.2,1.1-2.3,3.3-4.6,2.8c-2.2-0.4-4.4-0.5-6.5-1c-6.4-1.3-12.9-1.9-19.4-2.1c-6-0.2-12.1-1-18.2-0.3
	c-5,0.5-10.2,0.3-15.3,1c-7.5,1-14.8,2.7-21.9,5.2c-11.4,4-21.5,10.2-30.4,18.4c-6.4,5.9-11.5,12.8-15.7,20.4
	c-6.2,10.9-10,22.8-10.8,35.2c-0.7,9.7-0.7,19.5,1.2,29.3c3.1,16.1,11.5,28.8,23.5,39.5c5,4.4,10.6,7.9,16.4,11.1
	c4.4,2.4,8.8,4.8,13.6,6.5c0.1,0.1,0.2,0.1,0.3,0.2c0,0,0,0,0,0.1c5,3,10.6,4.3,16,6.2c6.5,2.3,13,4.8,19.5,6.9
	c6.6,2.2,12.7,5.6,19.5,7.4c4.2,1.1,8.3,2.7,12.2,4.5c5.3,2.4,10.5,4.8,15.4,8.2c3.8,2.7,7.5,5.6,10.1,9.2
	c6.3,8.7,7.3,18.6,4.6,28.8c-0.9,3.5-2.8,6.6-5.1,9.4c-4,4.7-7.6,9.7-12.4,13.8c-4.8,4.1-10.7,5.7-16,8.5c-1.4,0.7-3.3,0.3-4.6,1
	c-4.3,2.3-9,3.3-13.6,3.4c-13.7,0.4-27.3,0.9-40.9-1.7c-9.5-1.8-18.6-4.8-27.4-8.6c-4.7-2-8.7-4.9-12.7-8.1
	c-7.2-5.7-13.3-12.5-19.7-19c-3.9-4-6.9-8.7-10.5-12.9c-0.2,0.6-0.6,1.1-0.9,1.6c0.3-0.5,0.6-0.9,0.8-1.5c-5.1-7.2-9.8-14.7-14-22.4
	c-5.3-9.7-9.2-19.9-12.4-30.4c-2.2-7.3-4.1-14.7-5.4-22.2c-0.6-3.5-0.8-7.3-2.7-10.6c-0.7-1.4-2.3-2.5-2.2-3.8
	c0.2-1.5,2.3-2,3.4-3.1c5.6-5.4,10.5-11.3,14.4-18.2c6.8-11.9,10.4-24.6,11.2-38.2c0.2-3.7,0.4-7.4,0.1-11.1
	c-0.2-3.4-0.4-6.9-1-10.3c-2.2-13.8-7.2-26.4-16.1-37.4c-8.9-11-20.5-18.1-33.2-23.6c-5.8-2.6-12.1-3.8-18.4-5.2
	c-9.4-2.1-18.9-3-28.5-3.1c-31-0.2-62,0-93-0.1C23.5,0,17.1,9,16.9,17c-0.3,26.4-0.1,52.9-0.1,79.3c0.1,53.7,0,107.5,0.1,161.2
	c0,1.9-0.5,2.9-2.1,4c-9,6.3-14.1,14.7-14.8,25.8c-0.6,9.6,2.3,18.2,8.9,25.1c12,12.6,29.7,14.4,43.7,4.7
	c11.1-7.7,15.7-18.6,14.1-32.2c-1.1-9.8-6-17.1-13.8-22.8c-1.2-0.9-1.6-1.8-1.6-3.3V59.7c0-7.3,0.1-14.5,0-21.8
	c0-1.5,0.4-1.9,1.9-1.9c6.4,0,12.8-0.1,19.2,0c16.6,0.2,33.1-0.4,49.6,0.3c7.5,0.3,14.9,0.7,22.3,1.9c6.8,1,13.4,2.8,19.7,5.7
	c5,2.3,9.6,5.1,13.5,8.9c3.6,3.6,6.3,7.9,8.2,12.7c3.6,9.3,5.3,18.9,3.8,28.7c-1.4,9.1-4.8,17.4-9.9,25.1
	c-3.9,5.8-8.7,10.7-14.8,14.3c-2,1.2-4.1,1.6-6.3,0.6c-9.1-4.2-18.6-7.5-28.2-10.5c-2.2-0.7-3-2-3.5-3.8
	c-2.8-11-12.3-17.8-22.8-18.7c-8.3-0.8-15.5,1.7-21.6,7.6c-5.4,5.3-7.6,11.9-7.8,19.1c-0.2,5.4,1.7,10.6,4.9,15.2
	c4.6,6.6,11,10.2,18.9,11.1c7.6,0.9,14.7-1.3,20.4-6.5c2.1-2,3.7-1.6,6-0.8c10.2,3.7,19.9,8.5,29.3,13.7c3,1.6,6,3.2,7.2,6.9
	c0.7,2,1,4.1,1.3,6.1c1.7,10.7,4.7,21.1,8,31.4c2.4,7.6,5.4,14.9,8.4,22.3c3.5,8.5,8.5,16.2,13.3,24c3,5,6.8,9.7,10.7,14.1
	c0.1,0.3,0.2,0.6,0.4,1c6.1,7.2,12.4,14.2,18.8,21.1c9.4,10,20.4,17.5,32.6,23.6c9,4.5,18.4,7.4,28,10c8.9,2.5,17.7,5.1,26.9,6
	c3.6,0.4,7.2,1.2,10.8,1.2c8.8,0,17.7,0.5,26.5-0.4c3.9-0.4,7.9-0.8,11.7-1.8c11.1-2.7,21.4-7.3,31-13.5c4.1-2.7,8-5.7,11.7-9
	c10.3-9.3,16.9-21.2,23.3-33.2c4-7.8,6.1-16.1,5.6-24.8c-0.3-5.9-0.6-11.9-1.6-17.9c-1.7-10.7-5.6-20.2-11.8-29
	c-7.7-10.9-18.2-18.4-29.8-24.4c-7.4-3.9-15-7.1-23.1-9.4c-7.8-2.2-15.2-5.5-22.9-7.8c-4.3-1.2-8.3-3-12.6-4.1
	c-0.1-0.1-0.2-0.2-0.3-0.2c0,0,0,0,0,0c-1.7-0.7-3.4-1.5-5.1-2.2c-6.6-2.7-13.3-5.1-19.8-8.1c-5.4-2.5-10.4-5.9-14.8-10.1
	c-3.6-3.5-6.7-7.2-8.7-11.9c-3.2-7.7-3.9-15.7-2.9-24c1.1-9.5,4.8-17.9,11.5-24.7c6.7-6.9,15.1-11.3,24.2-14.2
	c6.2-2,12.5-3.4,19.1-4c6.6-0.6,13.1-0.9,19.8-0.5c6.9,0.4,13.7,1,20.4,2.1c1.7,0.2,4-0.2,5,1.9c2,4.2,5.2,7.3,8.4,10.5
	c4.3,4.3,9.7,6.7,15.4,7.5c9.7,1.4,19-0.1,26.9-6.7c5.4-4.5,9.5-10,11.5-17c0.7-2.3,0.2-4.8,1.9-6.8v-4.8
	C440.3,39.2,440.1,38.3,440,37.4z"/>
</svg>
